<?xml version="1.0" encoding="UTF-8"?>
<svg id="Layer_1" xmlns="http://www.w3.org/2000/svg" version="1.1" viewBox="0 0 200 75">
  <!-- Generator: Adobe Illustrator 30.0.0, SVG Export Plug-In . SVG Version: 2.1.1 Build 123)  -->
  <defs>
    <style>
      .st0 {
        fill: #231f20;
      }

      .st1 {
        isolation: isolate;
      }

      .st2 {
        fill: none;
        stroke: #231f20;
        stroke-miterlimit: 10;
        stroke-width: 1.1px;
      }

      .st3 {
        fill: #6c63ff;
      }
    </style>
  </defs>
  <path class="st3" d="M9.5,47.56v-20.07h3.07l7.97,13.27,7.83-13.27h3.07l.03,20.07h-3.53l-.03-13.28-6.59,10.98h-1.66l-6.59-10.84v13.13h-3.57Z"/>
  <path class="st3" d="M50.57,39.28c-.43-.67-1-1.23-1.71-1.65-.71-.42-1.48-.75-2.32-1s-1.69-.46-2.53-.65c-.85-.18-1.63-.38-2.34-.62-.71-.22-1.28-.53-1.71-.89-.43-.37-.65-.85-.65-1.46,0-.13,0-.27.04-.4h-3.7c-.03.19-.03.38-.03.57,0,1.07.21,1.95.64,2.64s1,1.24,1.71,1.65,1.49.74,2.34,1,1.7.49,2.55.67c.85.19,1.63.4,2.34.62.71.22,1.28.52,1.71.89s.65.87.65,1.48c0,.74-.35,1.37-1.05,1.87-.7.49-1.83.74-3.4.74-1.24,0-2.46-.21-3.64-.62s-2.17-.94-2.98-1.59l-1.3,2.89c.85.71,1.98,1.28,3.41,1.73,1.44.45,2.94.67,4.5.67,1.83,0,3.36-.27,4.56-.81,1.2-.55,2.1-1.27,2.68-2.18.58-.9.88-1.89.88-2.96s-.22-1.92-.65-2.6h0ZM46.43,30.69c.96.26,1.89.65,2.78,1.19l1.17-2.89c-.88-.58-1.91-1.01-3.1-1.32-1.18-.31-2.37-.46-3.58-.46-.4,0-.78.01-1.14.04l-.16,3.13c.38-.05.81-.08,1.27-.08.88,0,1.8.13,2.75.39h.01Z"/>
  <path class="st0" d="M182.96,39.28c-.43-.67-1-1.23-1.71-1.65-.71-.42-1.48-.75-2.32-1-.84-.25-1.69-.46-2.53-.65-.85-.18-1.63-.38-2.34-.62-.71-.22-1.28-.53-1.71-.89-.43-.37-.65-.85-.65-1.46,0-.13,0-.27.04-.4h-3.7c-.03.19-.03.38-.03.57,0,1.07.21,1.95.64,2.64s1,1.24,1.71,1.65,1.49.74,2.34,1c.85.26,1.7.49,2.55.67.85.19,1.63.4,2.34.62.71.22,1.28.52,1.71.89.43.37.65.87.65,1.48,0,.74-.35,1.37-1.05,1.87-.7.49-1.83.74-3.4.74-1.24,0-2.46-.21-3.64-.62s-2.17-.94-2.98-1.59l-1.3,2.89c.85.71,1.98,1.28,3.41,1.73,1.44.45,2.94.67,4.5.67,1.83,0,3.36-.27,4.56-.81,1.2-.55,2.1-1.27,2.68-2.18.58-.9.88-1.89.88-2.96s-.22-1.92-.65-2.6h0ZM178.81,30.69c.96.26,1.89.65,2.78,1.19l1.17-2.89c-.88-.58-1.91-1.01-3.1-1.32-1.18-.31-2.37-.46-3.58-.46-.4,0-.78.01-1.14.04l-.16,3.13c.38-.05.81-.08,1.27-.08.88,0,1.8.13,2.75.39h.01Z"/>
  <path class="st3" d="M64.78,27.49h-3.67l-9.03,20.07h3.84l1.98-4.64h0l1.25-2.93,3.75-8.78,7.02,16.35h3.9l-9.06-20.07h0Z"/>
  <path class="st0" d="M139.99,27.49h-3.67l-9.03,20.07h3.84l1.98-4.64h0l1.25-2.93,3.75-8.78,7.02,16.35h3.9l-9.06-20.07h.01Z"/>
  <path class="st3" d="M80.12,36.72h-3.73v10.85h3.73v-7.69h9.69v-3.16h-9.69ZM76.4,27.49v3.14h14.66v-3.13h-14.66Z"/>
  <path class="st3" d="M94.66,27.49v3.12h3.73v-3.12s-3.73,0-3.73,0ZM94.66,32.09v15.47h3.73v-15.47h-3.73Z"/>
  <path class="st0" d="M111.72,47.56v-20.07h3.73v16.92h10.49v3.15s-14.22,0-14.22,0Z"/>
  <path class="st0" d="M164.02,38.9c-.67-.84-1.54-1.43-2.6-1.78.76-.4,1.38-.98,1.86-1.73.47-.76.72-1.65.72-2.68,0-1.59-.64-2.85-1.89-3.8-1.26-.94-3.1-1.42-5.5-1.42h-5.54v2.93h5.14c1.3,0,2.3.23,3,.69.7.46,1.05,1.16,1.05,2.1s-.35,1.6-1.05,2.06c-.7.46-1.69.69-3,.69h-5.14v2.89h5.88c1.4,0,2.47.24,3.21.71.74.47,1.12,1.2,1.12,2.19s-.37,1.75-1.12,2.21c-.74.46-1.82.69-3.21.69h-5.88v2.93h6.11c2.58,0,4.54-.48,5.86-1.44,1.33-.96,2-2.29,2-4.01,0-1.3-.34-2.37-1.01-3.21v-.02Z"/>
  <polyline class="st2" points="96.52 23.89 96.52 11.24 190.5 11.24 190.5 63.81 96.52 63.81 96.52 54.5"/>
  <g class="st1">
    <g class="st1">
      <path class="st0" d="M108.65,59.46c-.27,0-.52-.05-.75-.14-.23-.09-.44-.23-.62-.4-.18-.18-.31-.39-.42-.64-.1-.25-.15-.54-.15-.86,0-.33.05-.65.17-.93.11-.29.27-.54.47-.76.2-.22.44-.39.71-.51s.56-.18.88-.18.57.05.8.16.42.24.56.41c.15.17.25.34.31.51l-.44.18c-.09-.25-.24-.45-.45-.6-.21-.15-.47-.22-.78-.22-.25,0-.49.05-.7.15s-.4.24-.56.41c-.16.18-.28.38-.37.62-.09.24-.13.5-.13.78,0,.32.06.6.19.85.12.24.3.43.52.56s.48.2.77.2c.32,0,.59-.08.83-.23.23-.15.41-.35.54-.6l.42.2c-.08.18-.21.35-.38.51-.17.16-.38.3-.61.4-.24.1-.51.15-.8.15Z"/>
      <path class="st0" d="M111.13,59.39l.6-4.29h1.41c.26,0,.49.05.68.16.19.1.34.25.44.43.1.19.16.41.16.66,0,.21-.04.41-.13.59s-.21.33-.36.45c-.16.12-.34.21-.55.27l.75,1.73h-.51l-.79-1.86.29.19h-1.28l-.23,1.67h-.46ZM111.88,57.29h1.04c.2,0,.38-.04.54-.12.15-.08.27-.19.36-.34.09-.14.13-.3.13-.49,0-.25-.08-.45-.23-.59-.15-.14-.36-.21-.61-.21h-.98l-.25,1.76Z"/>
      <path class="st0" d="M114.83,59.39l.6-4.29h2.76l-.06.43h-2.3l-.21,1.49h2.19l-.06.43h-2.19l-.21,1.5h2.3l-.06.43h-2.77Z"/>
    </g>
    <g class="st1">
      <path class="st0" d="M117.92,59.39l2.17-4.29h.5l.97,4.29h-.47l-.22-1.05h-1.91l-.52,1.05h-.51ZM119.16,57.91h1.61l-.53-2.46.14.02-1.21,2.45Z"/>
    </g>
    <g class="st1">
      <path class="st0" d="M122.79,59.39l.54-3.86h-1.19l.06-.43h2.82l-.06.43h-1.17l-.54,3.86h-.46Z"/>
      <path class="st0" d="M125,59.39l.6-4.29h2.76l-.06.43h-2.3l-.21,1.49h2.19l-.06.43h-2.19l-.21,1.5h2.3l-.06.43h-2.77Z"/>
      <path class="st0" d="M128.61,59.39l.09-.63h.46l-.09.63h-.46Z"/>
      <path class="st0" d="M133.26,59.46c-.27,0-.52-.05-.75-.14-.23-.09-.44-.23-.62-.4-.18-.18-.32-.39-.42-.64-.1-.25-.15-.54-.15-.86,0-.33.06-.65.17-.93s.27-.54.47-.76c.2-.22.43-.39.71-.51.27-.12.56-.18.88-.18s.57.05.8.16.42.24.56.41c.15.17.25.34.31.51l-.44.18c-.09-.25-.24-.45-.45-.6-.21-.15-.47-.22-.78-.22-.25,0-.49.05-.7.15-.21.1-.4.24-.56.41-.16.18-.28.38-.37.62-.09.24-.13.5-.13.78,0,.32.06.6.19.85s.3.43.52.56.48.2.77.2c.32,0,.59-.08.83-.23.23-.15.41-.35.54-.6l.42.2c-.08.18-.21.35-.38.51-.17.16-.38.3-.61.4-.24.1-.5.15-.8.15Z"/>
      <path class="st0" d="M137.92,59.46c-.29,0-.55-.05-.79-.15-.24-.1-.46-.24-.64-.42-.18-.18-.32-.4-.43-.65-.1-.25-.15-.53-.15-.83,0-.33.06-.63.17-.92s.28-.54.48-.76.45-.39.73-.51c.28-.12.58-.18.91-.18.29,0,.55.05.8.15.24.1.46.24.64.42.18.18.32.4.43.65.1.25.15.53.15.83,0,.33-.06.63-.18.92-.12.29-.28.54-.49.76-.21.22-.45.39-.73.51-.28.12-.58.18-.9.18ZM137.93,59.03c.26,0,.51-.05.73-.16s.42-.25.58-.43c.17-.18.29-.39.38-.62.09-.23.14-.47.14-.73,0-.31-.06-.58-.19-.83-.13-.25-.31-.44-.54-.59-.23-.15-.51-.22-.82-.22-.26,0-.51.05-.73.16-.22.1-.42.25-.58.43s-.29.39-.38.62-.14.47-.14.73c0,.3.07.58.2.83.13.25.31.44.54.59.23.15.5.22.82.22Z"/>
      <path class="st0" d="M140.82,59.39l.6-4.29h1.34c.39,0,.73.08,1.01.24.28.16.5.39.65.67s.23.61.23.98c0,.35-.05.67-.16.96-.11.29-.26.54-.46.76s-.45.38-.73.5-.61.18-.96.18h-1.51ZM141.33,58.96h1.01c.27,0,.51-.05.73-.14s.41-.22.57-.39c.16-.17.29-.37.38-.61s.13-.49.13-.77c0-.31-.06-.58-.18-.81s-.29-.4-.5-.52-.48-.18-.78-.18h-.89l-.48,3.43Z"/>
      <path class="st0" d="M145.11,59.39l.6-4.29h2.77l-.06.43h-2.3l-.21,1.49h2.19l-.06.43h-2.19l-.21,1.5h2.3l-.06.43h-2.76Z"/>
      <path class="st0" d="M148.72,59.39l.09-.63h.46l-.09.63h-.46Z"/>
      <path class="st0" d="M151.26,59.39l.6-4.29h.46l-.6,4.29h-.46Z"/>
      <path class="st0" d="M152.74,59.39l.6-4.29h.4l1.98,3.61h-.13l.51-3.61h.46l-.6,4.29h-.4l-1.98-3.63h.13l-.51,3.63h-.46Z"/>
      <path class="st0" d="M156.99,59.39l.6-4.29h.4l1.98,3.61h-.13l.51-3.61h.46l-.6,4.29h-.4l-1.98-3.63h.13l-.51,3.63h-.46Z"/>
    </g>
    <g class="st1">
      <path class="st0" d="M164.27,59.46c-.28,0-.55-.05-.79-.15-.24-.1-.46-.24-.64-.42s-.32-.4-.43-.65c-.1-.25-.15-.53-.15-.83,0-.33.06-.63.17-.92s.28-.54.48-.76.45-.39.73-.51.58-.18.91-.18c.29,0,.55.05.8.15.24.1.46.24.64.42.18.18.32.4.43.65.1.25.15.53.15.83,0,.33-.06.63-.18.92-.12.29-.28.54-.49.76s-.45.39-.73.51-.58.18-.9.18ZM164.27,59.03c.26,0,.51-.05.73-.16s.42-.25.58-.43.29-.39.38-.62c.09-.23.14-.47.14-.73,0-.31-.06-.58-.19-.83-.13-.25-.31-.44-.54-.59-.23-.15-.51-.22-.82-.22-.26,0-.51.05-.73.16-.22.1-.42.25-.58.43s-.29.39-.38.62-.14.47-.14.73c0,.3.07.58.2.83.13.25.31.44.54.59.23.15.5.22.82.22Z"/>
    </g>
    <g class="st1">
      <path class="st0" d="M168.18,59.39l-.97-4.29h.46l.83,3.88h-.1l1.92-3.88h.51l-2.18,4.29h-.48Z"/>
      <path class="st0" d="M169.67,59.39l2.17-4.29h.5l.97,4.29h-.47l-.22-1.05h-1.91l-.52,1.05h-.51ZM170.91,57.91h1.61l-.53-2.46.14.02-1.22,2.45Z"/>
    </g>
    <g class="st1">
      <path class="st0" d="M175.08,59.39l.54-3.86h-1.19l.06-.43h2.82l-.06.43h-1.17l-.54,3.86h-.46Z"/>
      <path class="st0" d="M177.29,59.39l.6-4.29h2.77l-.06.43h-2.3l-.21,1.49h2.19l-.06.43h-2.19l-.21,1.5h2.3l-.06.43h-2.76Z"/>
    </g>
  </g>
</svg>